<svg xmlns="http://www.w3.org/2000/svg" viewBox="0 0 32 32" fill="none">
  <rect width="32" height="32" rx="3" fill="#0a0a0b"/>
  <!-- firewall grid hint -->
  <g stroke="#2a2a2e" stroke-width="0.75">
    <line x1="0" y1="8" x2="32" y2="8"/>
    <line x1="0" y1="16" x2="32" y2="16"/>
    <line x1="0" y1="24" x2="32" y2="24"/>
    <line x1="8" y1="0" x2="8" y2="8"/>
    <line x1="16" y1="0" x2="16" y2="8"/>
    <line x1="24" y1="0" x2="24" y2="8"/>
    <line x1="4" y1="8" x2="4" y2="16"/>
    <line x1="12" y1="8" x2="12" y2="16"/>
    <line x1="20" y1="8" x2="20" y2="16"/>
    <line x1="28" y1="8" x2="28" y2="16"/>
  </g>
  <!-- flamingo silhouette -->
  <path d="M8 27 L8 19 Q8 13 13 12 L18 11 L21 14 L21 19 Q24 20 24 23 L24 27 Z" fill="#ffffff"/>
  <path d="M18 11 C15 8 17 4 20 3 C23 4 22 8 20 10 Z" fill="#ffffff"/>
  <path d="M21 3 L26 4 L24 6 L22 4 Z" fill="#ffffff"/>
  <line x1="13" y1="27" x2="12" y2="32" stroke="#ffffff" stroke-width="1.5"/>
  <line x1="18" y1="27" x2="19" y2="32" stroke="#ffffff" stroke-width="1.5"/>
  <!-- signal dot -->
  <circle cx="22" cy="4" r="2" fill="#d9ff3b"/>
</svg>
