<svg xmlns="http://www.w3.org/2000/svg" viewBox="0 0 420 64" fill="none">
  
  <rect width="64" height="64" fill="#000"></rect>
  <g stroke="#1f1f23" stroke-width="1">
    <line x1="0" y1="12" x2="64" y2="12"></line>
    <line x1="0" y1="24" x2="64" y2="24"></line>
    <line x1="0" y1="36" x2="64" y2="36"></line>
    <line x1="0" y1="48" x2="64" y2="48"></line>
    <line x1="12" y1="0" x2="12" y2="12"></line><line x1="28" y1="0" x2="28" y2="12"></line><line x1="44" y1="0" x2="44" y2="12"></line>
    <line x1="20" y1="12" x2="20" y2="24"></line><line x1="36" y1="12" x2="36" y2="24"></line><line x1="52" y1="12" x2="52" y2="24"></line>
    <line x1="12" y1="24" x2="12" y2="36"></line><line x1="28" y1="24" x2="28" y2="36"></line><line x1="44" y1="24" x2="44" y2="36"></line>
    <line x1="20" y1="36" x2="20" y2="48"></line><line x1="36" y1="36" x2="36" y2="48"></line><line x1="52" y1="36" x2="52" y2="48"></line>
    <line x1="12" y1="48" x2="12" y2="64"></line><line x1="28" y1="48" x2="28" y2="64"></line><line x1="44" y1="48" x2="44" y2="64"></line>
  </g>
  <g fill="#ffffff">
    <path d="M20 44 C 20 34, 28 30, 36 32 L 40 30 L 42 34 L 40 40 C 44 40, 46 42, 46 44 L 46 48 L 22 48 L 20 46 Z"></path>
    <path d="M36 32 C 32 28, 34 22, 38 20 C 42 18, 44 14, 42 10 C 40 6, 44 4, 48 6 C 52 8, 52 14, 48 18 C 44 22, 42 26, 42 30 Z"></path>
    <path d="M46 8 L 54 10 L 50 12 L 48 10 Z"></path>
    <path d="M30 48 L 28 60 L 30 60 L 32 48 Z"></path>
    <path d="M38 48 L 40 58 L 42 58 L 40 48 Z"></path>
  </g>
  <circle cx="54" cy="14" r="1.6" fill="#d9ff3b"></circle>

  
  <text x="80" y="28" font-family="Inter, system-ui, sans-serif" font-weight="800" font-size="20" letter-spacing="0.14em" fill="#000">FIREWALL</text>
  <text x="80" y="52" font-family="Inter, system-ui, sans-serif" font-weight="800" font-size="20" letter-spacing="0.14em" fill="#000">FLAMINGOS</text>

  
  <line x1="260" y1="16" x2="260" y2="48" stroke="#c9c9ce" stroke-width="1"></line>

  
  <text x="272" y="26" font-family="JetBrains Mono, monospace" font-weight="500" font-size="9" letter-spacing="0.22em" fill="#6b6b74">THREAT INTELLIGENCE</text>
  <text x="272" y="40" font-family="JetBrains Mono, monospace" font-weight="500" font-size="9" letter-spacing="0.22em" fill="#6b6b74">&amp; SECURITY RESEARCH</text>
  <text x="272" y="54" font-family="JetBrains Mono, monospace" font-weight="500" font-size="9" letter-spacing="0.22em" fill="#a8a8b0">EST. MMXXV · SOLO</text>
</svg>